<?xml version="1.0" encoding="UTF-8" standalone="no"?>
<!DOCTYPE svg PUBLIC "-//W3C//DTD SVG 1.1//EN" "http://www.w3.org/Graphics/SVG/1.1/DTD/svg11.dtd">
<svg width="100%" height="100%" viewBox="0 0 512 512" version="1.1" xmlns="http://www.w3.org/2000/svg" xmlns:xlink="http://www.w3.org/1999/xlink" xml:space="preserve" xmlns:serif="http://www.serif.com/" style="fill-rule:evenodd;clip-rule:evenodd;stroke-linejoin:round;stroke-miterlimit:2;">
    <g transform="matrix(0.192721,0,0,0.192721,16.0308,21.9199)">
        <path d="M1245.17,0.18C557.568,0.18 0,557.65 0,1245.35C0,1795.5 356.777,2262.24 851.523,2426.89C913.75,2438.41 936.602,2399.88 936.602,2366.99C936.602,2337.3 935.439,2239.2 934.912,2135.16C588.496,2210.48 515.4,1988.25 515.4,1988.25C458.76,1844.32 377.148,1806.06 377.148,1806.06C264.18,1728.77 385.664,1730.36 385.664,1730.36C510.703,1739.14 576.543,1858.68 576.543,1858.68C687.598,2049.04 867.832,1994 938.887,1962.19C950.059,1881.7 982.334,1826.78 1017.94,1795.69C741.377,1764.19 450.635,1657.43 450.635,1180.32C450.635,1044.38 499.277,933.295 578.936,846.098C566.006,814.73 523.389,688.09 590.996,516.576C590.996,516.576 695.557,483.109 933.506,644.213C1032.82,616.615 1139.35,602.787 1245.17,602.318C1350.99,602.787 1457.59,616.615 1557.1,644.213C1794.77,483.109 1899.18,516.576 1899.18,516.576C1966.95,688.09 1924.32,814.73 1911.39,846.098C1991.22,933.295 2039.53,1044.37 2039.53,1180.32C2039.53,1658.56 1748.24,1763.87 1470.98,1794.69C1515.63,1833.33 1555.43,1909.12 1555.43,2025.28C1555.43,2191.88 1553.98,2325.97 1553.98,2366.99C1553.98,2400.12 1576.4,2438.95 1639.52,2426.72C2133.99,2261.89 2490.32,1795.32 2490.32,1245.35C2490.32,557.65 1932.83,0.18 1245.17,0.18" style="fill:rgb(106,115,128);fill-rule:nonzero;"/>
    </g>
</svg>
