<?xml version="1.0" encoding="UTF-8" standalone="no"?>
<!DOCTYPE svg PUBLIC "-//W3C//DTD SVG 1.1//EN" "http://www.w3.org/Graphics/SVG/1.1/DTD/svg11.dtd">
<svg width="100%" height="100%" viewBox="0 0 500 150" version="1.1" xmlns="http://www.w3.org/2000/svg" xmlns:xlink="http://www.w3.org/1999/xlink" xml:space="preserve" xmlns:serif="http://www.serif.com/" style="fill-rule:evenodd;clip-rule:evenodd;stroke-linejoin:round;stroke-miterlimit:2;">
    <g transform="matrix(1,0,0,1,25.5405,-11.6126)">
        <g id="Logo">
            <g transform="matrix(140.055,0,0,140.055,23.9708,121.626)">
                <path d="M0.061,-0L0.061,-0.5L0.213,-0.5L0.218,-0.403C0.234,-0.438 0.257,-0.465 0.286,-0.483C0.315,-0.501 0.348,-0.51 0.386,-0.51C0.423,-0.51 0.456,-0.502 0.483,-0.485C0.51,-0.468 0.531,-0.444 0.544,-0.411C0.555,-0.433 0.569,-0.451 0.586,-0.466C0.603,-0.481 0.622,-0.492 0.644,-0.499C0.666,-0.506 0.689,-0.51 0.712,-0.51C0.745,-0.51 0.775,-0.503 0.8,-0.491C0.825,-0.478 0.846,-0.458 0.861,-0.432C0.876,-0.405 0.883,-0.372 0.883,-0.333L0.883,-0L0.713,-0L0.713,-0.294C0.713,-0.326 0.707,-0.348 0.695,-0.361C0.682,-0.374 0.666,-0.38 0.645,-0.38C0.628,-0.38 0.613,-0.376 0.6,-0.368C0.586,-0.359 0.575,-0.347 0.568,-0.33C0.561,-0.313 0.557,-0.292 0.557,-0.267L0.557,-0L0.387,-0L0.387,-0.294C0.387,-0.326 0.381,-0.348 0.368,-0.361C0.355,-0.374 0.339,-0.38 0.319,-0.38C0.304,-0.38 0.289,-0.376 0.276,-0.368C0.262,-0.36 0.251,-0.347 0.243,-0.331C0.235,-0.314 0.231,-0.291 0.231,-0.264L0.231,-0L0.061,-0Z" style="fill:rgb(37,37,37);fill-rule:nonzero;"/>
            </g>
            <g transform="matrix(140.055,0,0,140.055,157.443,121.626)">
                <path d="M0.305,0.01C0.25,0.01 0.202,-0 0.162,-0.021C0.121,-0.042 0.09,-0.071 0.068,-0.11C0.046,-0.149 0.035,-0.195 0.035,-0.25C0.035,-0.305 0.046,-0.351 0.068,-0.39C0.09,-0.429 0.121,-0.458 0.161,-0.479C0.2,-0.5 0.246,-0.51 0.297,-0.51C0.35,-0.51 0.395,-0.5 0.432,-0.48C0.468,-0.459 0.497,-0.431 0.516,-0.396C0.535,-0.36 0.545,-0.319 0.545,-0.273C0.545,-0.261 0.545,-0.249 0.544,-0.237C0.543,-0.225 0.542,-0.215 0.541,-0.207L0.145,-0.207L0.145,-0.298L0.466,-0.298L0.385,-0.267C0.385,-0.307 0.378,-0.338 0.364,-0.359C0.349,-0.38 0.327,-0.391 0.297,-0.391C0.276,-0.391 0.258,-0.386 0.243,-0.376C0.228,-0.366 0.216,-0.35 0.209,-0.329C0.201,-0.308 0.197,-0.28 0.197,-0.247C0.197,-0.214 0.201,-0.188 0.21,-0.168C0.219,-0.147 0.231,-0.133 0.247,-0.124C0.263,-0.115 0.282,-0.11 0.305,-0.11C0.33,-0.11 0.351,-0.115 0.366,-0.125C0.381,-0.135 0.392,-0.149 0.399,-0.167L0.535,-0.122C0.526,-0.093 0.509,-0.069 0.487,-0.05C0.464,-0.03 0.436,-0.015 0.405,-0.005C0.373,0.005 0.34,0.01 0.305,0.01Z" style="fill:rgb(37,37,37);fill-rule:nonzero;"/>
            </g>
            <g transform="matrix(140.055,0,0,140.055,238.255,121.626)">
                <path d="M0.061,-0L0.061,-0.5L0.211,-0.5L0.218,-0.392C0.231,-0.429 0.25,-0.458 0.275,-0.479C0.3,-0.5 0.331,-0.51 0.37,-0.51C0.383,-0.51 0.394,-0.509 0.403,-0.507C0.412,-0.505 0.419,-0.502 0.424,-0.499L0.407,-0.359C0.4,-0.362 0.392,-0.364 0.382,-0.366C0.371,-0.367 0.359,-0.368 0.344,-0.368C0.324,-0.368 0.305,-0.364 0.288,-0.355C0.271,-0.346 0.257,-0.334 0.247,-0.317C0.236,-0.3 0.231,-0.278 0.231,-0.252L0.231,-0L0.061,-0Z" style="fill:rgb(37,37,37);fill-rule:nonzero;"/>
            </g>
            <g transform="matrix(140.055,0,0,140.055,295.397,121.626)">
                <path d="M0.061,-0L0.061,-0.5L0.213,-0.5L0.222,-0.328L0.203,-0.347C0.21,-0.383 0.222,-0.413 0.239,-0.437C0.256,-0.461 0.277,-0.479 0.303,-0.492C0.328,-0.504 0.357,-0.51 0.389,-0.51C0.424,-0.51 0.454,-0.503 0.48,-0.49C0.505,-0.477 0.525,-0.457 0.54,-0.431C0.555,-0.405 0.562,-0.372 0.562,-0.333L0.562,-0L0.392,-0L0.392,-0.288C0.392,-0.323 0.385,-0.347 0.372,-0.36C0.359,-0.373 0.342,-0.38 0.321,-0.38C0.305,-0.38 0.29,-0.376 0.276,-0.369C0.262,-0.361 0.251,-0.349 0.243,-0.332C0.235,-0.315 0.231,-0.293 0.231,-0.265L0.231,-0L0.061,-0Z" style="fill:rgb(37,37,37);fill-rule:nonzero;"/>
            </g>
            <g transform="matrix(140.055,0,0,140.055,382.091,121.626)">
                <path d="M0.145,-0.172C0.176,-0.172 0.201,-0.164 0.219,-0.148C0.236,-0.132 0.245,-0.11 0.245,-0.081C0.245,-0.053 0.236,-0.031 0.219,-0.015C0.201,0.001 0.176,0.009 0.145,0.009C0.114,0.009 0.09,0.001 0.072,-0.015C0.054,-0.031 0.045,-0.053 0.045,-0.081C0.045,-0.11 0.054,-0.132 0.072,-0.148C0.09,-0.164 0.114,-0.172 0.145,-0.172Z" style="fill:rgb(37,37,37);fill-rule:nonzero;"/>
            </g>
        </g>
    </g>
</svg>
